<?xml version="1.0" encoding="UTF-8"?>
<svg id="_レイヤー_2" data-name="レイヤー 2" xmlns="http://www.w3.org/2000/svg" viewBox="0 0 150 150">
  <defs>
    <style>
      .cls-1 {
        fill: #fff;
        fill-rule: evenodd;
      }

      .cls-1, .cls-2 {
        stroke-width: 0px;
      }

      .cls-2 {
        fill: none;
      }
    </style>
  </defs>
  <g id="_レイヤー_1-2" data-name="レイヤー 1">
    <g>
      <path class="cls-1" d="M75.06,1.25C33.55,1.25,0,35.05,0,76.87c0,33.43,21.5,61.72,51.33,71.74,3.73.75,5.09-1.63,5.09-3.63,0-1.75-.12-7.76-.12-14.02-20.88,4.51-25.23-9.01-25.23-9.01-3.36-8.76-8.33-11.02-8.33-11.02-6.83-4.63.5-4.63.5-4.63,7.58.5,11.56,7.76,11.56,7.76,6.71,11.52,17.52,8.26,21.87,6.26.62-4.88,2.61-8.26,4.72-10.14-16.65-1.75-34.18-8.26-34.18-37.31,0-8.26,2.98-15.02,7.7-20.28-.75-1.88-3.36-9.64.75-20.03,0,0,6.34-2,20.63,7.76,6.12-1.66,12.43-2.5,18.77-2.5,6.34,0,12.8.88,18.76,2.5,14.29-9.77,20.63-7.76,20.63-7.76,4.1,10.39,1.49,18.15.75,20.03,4.85,5.26,7.71,12.02,7.71,20.28,0,29.05-17.52,35.43-34.3,37.31,2.73,2.38,5.09,6.88,5.09,14.02,0,10.14-.12,18.28-.12,20.78,0,2,1.37,4.38,5.09,3.63,29.83-10.02,51.33-38.31,51.33-71.74.12-41.82-33.55-75.62-74.94-75.62Z"/>
      <rect class="cls-2" x="0" width="150" height="150"/>
    </g>
  </g>
</svg>