<?xml version="1.0" encoding="UTF-8"?>
<svg id="_レイヤー_2" data-name="レイヤー 2" xmlns="http://www.w3.org/2000/svg" viewBox="0 0 300 300">
  <defs>
    <style>
      .cls-1 {
        fill: #000;
      }

      .cls-1, .cls-2 {
        stroke-width: 0px;
      }

      .cls-2 {
        fill: #f5f5f5;
      }
    </style>
  </defs>
  <g id="_レイヤー_1-2" data-name="レイヤー 1">
    <g>
      <rect class="cls-2" width="300" height="300"/>
      <g>
        <path class="cls-1" d="M89.21,144.8c-.2,0-.37-.07-.49-.21s-.19-.31-.19-.49.06-.35.19-.49.29-.21.49-.21h7.04c.2,0,.37.07.49.21s.19.31.19.49-.06.35-.19.49-.29.21-.49.21h-7.04ZM90.17,141.31c-.2,0-.37-.08-.5-.23s-.2-.32-.2-.5.07-.35.2-.5.3-.23.5-.23h5.2c.2,0,.37.08.5.23s.2.32.2.5-.07.35-.2.5-.3.23-.5.23h-5.2ZM90.17,148.31c-.22,0-.39-.07-.52-.21-.13-.14-.19-.31-.19-.49,0-.2.06-.38.19-.52.13-.14.3-.21.52-.21h5.2c.22,0,.39.07.52.21s.19.32.19.52c0,.19-.06.35-.19.49s-.3.21-.52.21h-5.2ZM90.17,151.79c-.22,0-.39-.07-.52-.21-.13-.14-.19-.31-.19-.49s.06-.35.19-.49c.13-.14.3-.21.52-.21h5.2c.22,0,.39.07.52.21s.19.31.19.49-.06.35-.19.49c-.13.14-.3.21-.52.21h-5.2ZM92.85,160.75c-.82,0-1.46-.09-1.92-.28-.46-.19-.77-.53-.95-1.04s-.26-1.22-.26-2.15.09-1.64.26-2.13c.18-.5.49-.84.95-1.04.45-.19,1.09-.29,1.92-.29s1.46.1,1.91.29c.45.19.76.54.93,1.04.18.5.27,1.21.27,2.13s-.09,1.64-.27,2.15-.49.85-.93,1.04c-.45.18-1.08.28-1.91.28ZM92.85,159.36c.49,0,.85-.05,1.1-.14.24-.09.4-.29.48-.58.08-.29.11-.75.11-1.35s-.04-1.03-.11-1.33c-.08-.29-.24-.49-.48-.59-.24-.1-.61-.15-1.1-.15s-.85.05-1.1.15c-.24.1-.4.3-.48.59-.08.29-.11.74-.11,1.33s.04,1.06.11,1.35c.08.29.24.49.48.58.24.09.61.14,1.1.14ZM96.36,161.13c-.19-.08-.3-.22-.35-.42-.05-.19-.03-.37.05-.54.76-1.33,1.31-2.94,1.65-4.82.34-1.88.52-4.1.52-6.64v-2.2c0-1.31.28-2.22.85-2.71.56-.5,1.47-.75,2.71-.75h2.8c-.05-1.25-.08-2.54-.08-3.89,0-.22.07-.39.21-.53.14-.13.32-.2.52-.2s.37.07.52.2c.14.14.21.31.19.53,0,.67,0,1.33.01,1.98,0,.65.02,1.28.04,1.91h5.15c.2,0,.37.07.49.2.13.13.19.29.19.48s-.06.34-.19.47c-.13.13-.29.19-.49.19h-5.1c.07,1.78.19,3.42.35,4.92.17,1.5.39,2.84.66,4.04.93-1.8,1.66-3.78,2.2-5.93.05-.22.16-.37.34-.45s.36-.1.54-.05c.45.13.62.43.5.88-.39,1.38-.84,2.69-1.35,3.94-.51,1.25-1.1,2.42-1.75,3.51.5,1.67,1.12,3.02,1.84,4.06.19.25.35.37.5.34.15-.03.28-.16.38-.42.13-.34.26-.67.37-1.01.11-.34.22-.66.34-.96.05-.19.16-.32.33-.39.17-.08.34-.07.53.01.4.13.55.41.43.83-.12.37-.25.78-.4,1.22-.15.45-.32.87-.5,1.27-.34.77-.79,1.18-1.36,1.22-.57.04-1.11-.3-1.62-1.02-.69-.98-1.29-2.2-1.79-3.69-1.04,1.51-2.29,2.89-3.74,4.14-.15.12-.33.17-.53.16-.2,0-.37-.08-.5-.21-.12-.14-.17-.29-.16-.48,0-.18.08-.34.21-.45,1.63-1.28,3.04-2.88,4.22-4.8-.74-2.78-1.22-6.34-1.44-10.7h-2.83c-.77,0-1.33.16-1.67.47-.34.31-.5.89-.5,1.73v1.36h1.31c.92,0,1.58.18,1.97.53.39.35.57.98.56,1.87-.02.84-.04,1.68-.06,2.52-.03.84-.08,1.62-.16,2.35-.1.98-.38,1.65-.83,2.02s-1.15.56-2.1.58c-.2.02-.37-.03-.52-.15-.14-.12-.22-.29-.24-.5-.02-.2.03-.38.15-.52.12-.14.27-.22.45-.24.66-.03,1.09-.14,1.3-.33.21-.18.35-.55.42-1.09.07-.55.12-1.23.15-2.02s.05-1.6.05-2.42c0-.47-.08-.79-.25-.96s-.51-.25-1.03-.25h-1.16c-.02,2.46-.21,4.63-.58,6.53-.37,1.89-.93,3.53-1.67,4.91-.1.18-.25.31-.45.38-.2.07-.4.06-.58-.03ZM110.34,142.5c-.15.12-.32.17-.52.16-.19,0-.35-.09-.47-.24-.15-.22-.35-.47-.61-.75-.25-.28-.5-.55-.76-.82-.25-.27-.47-.5-.66-.68-.12-.13-.17-.29-.16-.48,0-.18.09-.34.24-.45.13-.12.3-.17.49-.15s.36.09.49.23c.29.3.64.68,1.06,1.12.42.45.74.81.96,1.1.13.15.19.32.16.5-.03.19-.11.34-.24.45Z"/>
        <path class="cls-1" d="M115.01,146.69c-.19,0-.34-.07-.46-.2-.12-.13-.18-.29-.18-.48s.06-.34.18-.47c.12-.13.27-.19.46-.19h6.51c-.15-.35-.32-.71-.52-1.08-.19-.37-.36-.68-.49-.93-.1-.18-.11-.37-.01-.57.09-.19.23-.32.42-.39.19-.08.38-.1.58-.04.2.06.35.19.45.39.12.22.25.49.4.82s.3.65.45.97c.15.32.27.6.35.83h4.32c.12-.22.26-.49.43-.82s.33-.66.49-.98.28-.61.37-.85c.08-.22.23-.36.44-.43.21-.07.42-.06.62.02.18.07.33.19.43.38.1.19.1.38,0,.58-.12.27-.28.6-.49,1-.21.4-.41.76-.59,1.1h6.89c.18,0,.34.06.47.19s.19.28.19.47-.06.35-.19.48c-.13.14-.28.2-.47.2h-21.05ZM114.66,160.5c-.15-.12-.24-.28-.25-.48-.02-.2.04-.37.18-.5.3-.29.63-.63.97-1.03.34-.4.68-.82,1-1.25.32-.43.57-.8.76-1.12.12-.17.27-.27.47-.32s.37-.01.54.09c.18.1.3.25.34.44s.01.38-.09.57c-.19.34-.44.73-.77,1.17-.33.45-.67.88-1.02,1.29s-.67.76-.96,1.05c-.17.17-.36.26-.57.28-.21.02-.41-.04-.59-.18ZM116.48,142.15c-.19,0-.34-.07-.47-.2-.13-.13-.19-.29-.19-.46,0-.18.06-.34.19-.47.13-.13.28-.19.47-.19h8.28v-1.79c0-.24.08-.42.24-.57.16-.14.35-.21.57-.21.24,0,.43.07.58.21.15.14.23.33.23.57v1.79h8.33c.18,0,.34.06.47.19s.19.28.19.47c0,.17-.06.32-.19.46s-.28.2-.47.2h-18.23ZM122.84,154.57c-1.09,0-1.93-.1-2.51-.29-.58-.19-.98-.53-1.2-1.01s-.33-1.15-.33-2.01.11-1.55.33-2.03.62-.82,1.2-1.01c.58-.19,1.42-.29,2.51-.29h5.6c1.09,0,1.93.1,2.51.29.58.19.98.53,1.2,1.01s.33,1.16.33,2.03-.11,1.53-.33,2.01-.62.82-1.2,1.01c-.58.19-1.42.29-2.51.29h-5.6ZM120.44,150.63h10.45c-.05-.59-.24-.97-.57-1.15-.33-.18-.96-.27-1.88-.27h-5.55c-.92,0-1.55.09-1.88.27-.33.18-.52.56-.57,1.15ZM122.89,153.31h5.55c.94,0,1.58-.1,1.91-.29.33-.19.52-.6.57-1.22h-10.48c.03.62.21,1.03.54,1.22.33.19.96.29,1.91.29ZM125.89,161.23c-1.33,0-2.36-.1-3.09-.3s-1.24-.54-1.53-1.01-.43-1.11-.43-1.92v-1.72c0-.24.08-.42.23-.56s.33-.2.53-.2c.22,0,.4.07.54.2.14.13.21.32.21.56v1.54c0,.5.09.9.26,1.2.18.29.52.5,1.02.62.5.12,1.25.18,2.25.18s1.68-.06,2.21-.16c.53-.11.93-.32,1.19-.62.26-.3.46-.76.59-1.36.03-.22.14-.37.33-.47.18-.09.39-.11.61-.06.45.1.62.4.5.91-.13.81-.39,1.44-.77,1.91-.38.46-.94.79-1.68.98-.74.19-1.73.29-2.98.29ZM127.81,158.05c-.13.13-.3.2-.5.2s-.37-.08-.5-.23c-.29-.32-.67-.69-1.15-1.12-.48-.43-.89-.77-1.22-1.02-.13-.12-.2-.26-.19-.44,0-.18.07-.32.19-.44.13-.13.3-.21.49-.21s.37.05.52.19c.22.17.48.38.78.63.3.25.6.51.9.77.29.26.53.49.72.69.15.13.23.3.23.49s-.08.36-.25.49ZM136.62,159.97c-.15.13-.33.2-.54.19-.21,0-.38-.1-.52-.27-.24-.27-.55-.59-.95-.97s-.79-.75-1.2-1.12c-.4-.37-.76-.67-1.06-.91-.13-.13-.2-.29-.2-.48s.06-.34.18-.45c.13-.15.3-.23.5-.24.2,0,.38.05.53.19.29.22.64.51,1.06.88s.84.74,1.25,1.11c.41.37.74.69,1,.96.15.17.22.36.21.57,0,.21-.1.39-.27.54Z"/>
        <path class="cls-1" d="M140.76,161.74c-.24.02-.43-.05-.59-.2s-.25-.34-.26-.55c0-.22.07-.4.21-.56.14-.15.34-.23.59-.23.76-.03,1.26-.16,1.51-.39.25-.23.38-.63.38-1.2v-6.13c-.57.22-1.09.42-1.55.59s-.75.28-.87.32c-.22.1-.44.11-.66.03s-.37-.25-.45-.5c-.07-.2-.05-.4.06-.59s.28-.33.52-.42l2.95-1.04v-5.93h-2.85c-.2,0-.38-.07-.52-.21-.14-.14-.21-.32-.21-.52s.07-.37.21-.52.32-.21.52-.21h2.85v-4.34c0-.24.08-.42.23-.56s.33-.2.53-.2.38.07.53.2.23.32.23.56v4.34h2.25c.2,0,.37.07.52.21.14.14.21.32.21.52s-.07.38-.21.52-.32.21-.52.21h-2.25v5.4c.5-.18.95-.34,1.33-.48.38-.13.62-.22.72-.25.42-.17.72-.04.88.38.17.44.04.75-.38.93-.08.03-.37.15-.86.34s-1.05.41-1.69.64v6.92c0,.99-.25,1.72-.76,2.2-.5.47-1.37.71-2.6.73ZM153.51,161.64c-.19,0-.35-.07-.49-.2s-.21-.3-.21-.5v-2.4c-.54.13-1.2.29-1.97.47-.77.18-1.53.35-2.27.52-.74.17-1.34.29-1.79.38-.24.05-.44.03-.62-.08-.18-.1-.28-.25-.32-.46-.03-.22,0-.41.11-.57.11-.16.27-.26.49-.29.22-.03.48-.08.79-.14.31-.06.64-.12,1-.19v-9.11h-1.54c-.17,0-.32-.07-.45-.2s-.2-.29-.2-.45c0-.18.07-.34.2-.47.13-.13.29-.19.45-.19h15.3c.18,0,.34.06.45.19.12.13.18.28.18.47,0,.17-.06.32-.18.45-.12.13-.27.2-.45.2h-7.78v11.86c0,.2-.07.37-.2.5s-.3.2-.5.2ZM152.6,146.21c-1.38,0-2.33-.22-2.84-.67-.51-.45-.77-1.24-.77-2.39v-.83c0-1.14.26-1.94.77-2.38.51-.45,1.46-.67,2.84-.67h3.94c1.38,0,2.33.22,2.84.67.51.45.77,1.24.77,2.38v.83c0,1.14-.26,1.94-.77,2.39-.51.45-1.46.67-2.84.67h-3.94ZM149.65,151.06h3.16v-1.99h-3.16v1.99ZM149.65,154.29h3.16v-2.07h-3.16v2.07ZM149.65,157.9c.59-.12,1.16-.24,1.72-.35.56-.12,1.04-.22,1.44-.3v-1.79h-3.16v2.45ZM150.5,142.12h8.15c-.02-.64-.18-1.06-.48-1.26-.3-.2-.85-.3-1.64-.3h-3.94c-.79,0-1.33.1-1.63.3-.29.2-.45.62-.47,1.26ZM152.6,144.95h3.94c.81,0,1.36-.11,1.65-.32.29-.21.45-.64.47-1.28h-8.15c.02.64.17,1.06.46,1.28.29.21.83.32,1.64.32ZM155.83,160.93c-.17.12-.35.18-.55.18s-.37-.08-.5-.25c-.12-.15-.16-.32-.14-.52.02-.19.11-.34.26-.44,1.01-.71,1.88-1.53,2.62-2.47-.86-1.16-1.53-2.52-2.02-4.06-.05-.18-.03-.35.06-.5.09-.15.22-.25.39-.3.17-.03.33-.01.49.06.16.08.26.2.32.37.18.62.41,1.2.68,1.74.27.54.56,1.05.88,1.54.56-.94.94-1.91,1.16-2.9.13-.54.12-.9-.05-1.1-.17-.19-.55-.29-1.14-.29h-2.95c-.17,0-.31-.07-.43-.2-.12-.13-.18-.29-.18-.45s.06-.32.18-.44c.12-.13.26-.19.43-.19h3.18c1.04,0,1.75.24,2.12.71.37.47.44,1.18.2,2.12-.15.67-.37,1.33-.66,1.97s-.62,1.26-1.01,1.87c.39.44.81.84,1.28,1.21.46.37.95.72,1.48,1.04.18.1.29.26.33.47.03.21,0,.39-.13.54-.12.17-.28.27-.49.3-.21.03-.41,0-.59-.13-.5-.35-.98-.72-1.44-1.1-.46-.38-.88-.78-1.26-1.2-.71.89-1.55,1.71-2.52,2.45Z"/>
        <path class="cls-1" d="M165.04,148.59c-.18,0-.34-.07-.48-.2s-.2-.29-.2-.48.07-.34.2-.48.3-.2.5-.2h5.78v-1.57h-.78c-.91,0-1.62-.1-2.13-.3-.51-.2-.88-.55-1.08-1.04-.21-.49-.32-1.15-.32-1.99s.11-1.5.32-1.97c.21-.47.57-.8,1.08-1,.51-.19,1.22-.29,2.13-.29h3.05c.91,0,1.62.1,2.13.29s.88.53,1.09,1c.21.47.32,1.13.32,1.97s-.11,1.51-.32,1.99c-.21.49-.57.83-1.09,1.04s-1.22.3-2.13.3h-.73v1.57h5.73c.18,0,.34.07.47.2.13.13.19.29.19.48s-.07.34-.2.48-.29.2-.48.2h-13.05ZM165.04,159.74c-.15-.13-.22-.3-.21-.5,0-.2.1-.37.26-.5.32-.25.67-.57,1.05-.95.38-.38.74-.77,1.1-1.16s.64-.75.86-1.07c.12-.17.27-.27.45-.32.19-.04.36-.01.53.09.19.12.29.26.33.44s0,.35-.1.52c-.25.39-.57.8-.95,1.24-.38.44-.77.85-1.16,1.25s-.76.72-1.1.97c-.17.13-.35.21-.54.21-.19,0-.37-.06-.52-.21ZM169.23,161.74c-.24,0-.43-.07-.58-.21-.15-.14-.23-.32-.23-.54-.02-.2.05-.38.19-.54.14-.16.33-.25.57-.26.77-.03,1.27-.14,1.5-.32.23-.18.34-.56.34-1.15v-4.09h-1.39c-1.13,0-1.9-.17-2.32-.5-.42-.34-.63-.96-.63-1.87s.21-1.53.63-1.86c.42-.33,1.19-.49,2.32-.49h4.09c1.13,0,1.9.16,2.31.49.41.33.62.95.62,1.86s-.21,1.53-.62,1.87c-.41.34-1.18.5-2.31.5h-1.21v4.24c0,1.03-.23,1.76-.69,2.21s-1.33.67-2.59.67ZM168.02,141.74h7.14c-.07-.61-.24-1-.53-1.17s-.8-.27-1.54-.27h-3c-.72,0-1.24.09-1.54.27-.3.18-.48.57-.53,1.17ZM170.09,144.42h3c.74,0,1.25-.1,1.54-.29s.46-.59.53-1.2h-7.14c.05.61.23,1.01.53,1.2.3.19.82.29,1.54.29ZM169.64,153.36h4.09c.59,0,.97-.08,1.15-.23.18-.15.27-.45.27-.88s-.09-.73-.27-.87c-.18-.14-.56-.21-1.15-.21h-4.09c-.57,0-.96.07-1.15.21-.19.14-.29.43-.29.87s.1.73.29.88c.19.15.58.23,1.15.23ZM176.81,159.64c-.27-.27-.59-.59-.96-.97-.37-.38-.73-.77-1.09-1.17-.35-.4-.65-.75-.88-1.04-.12-.15-.17-.32-.16-.5,0-.19.08-.34.21-.46.13-.12.3-.17.5-.16.2,0,.36.08.48.21.25.29.56.62.91,1s.71.75,1.08,1.11c.37.36.69.66.96.9.15.13.23.31.24.52,0,.21-.05.38-.19.52-.15.15-.33.24-.54.25-.21.02-.4-.05-.57-.2ZM178.9,161.08c-.22.12-.44.16-.67.11-.23-.04-.4-.17-.52-.39-.12-.19-.14-.38-.08-.59.07-.21.22-.37.45-.49,1.6-.79,3.09-1.8,4.48-3.04,1.39-1.24,2.52-2.55,3.4-3.95.13-.2.32-.33.56-.38.24-.05.44,0,.61.13.2.13.32.31.34.53.03.22-.03.42-.16.61-.91,1.45-2.1,2.83-3.57,4.15s-3.08,2.43-4.83,3.32ZM179.71,145.28c-.19.12-.4.17-.63.15s-.42-.12-.55-.3c-.12-.19-.16-.38-.11-.59.04-.21.16-.37.34-.49.62-.4,1.28-.9,1.98-1.48.7-.58,1.37-1.19,2.01-1.83s1.18-1.25,1.62-1.82c.13-.17.32-.27.54-.3.23-.03.42.02.59.18.17.15.26.33.28.53.02.2-.04.4-.18.58-.47.62-1.03,1.26-1.68,1.91-.65.65-1.33,1.27-2.06,1.87-.72.6-1.44,1.13-2.15,1.6ZM180.04,152.67c-.2.12-.42.17-.64.16-.23,0-.41-.12-.54-.34-.12-.18-.16-.39-.13-.61.03-.22.16-.39.38-.5.76-.47,1.52-1.04,2.29-1.7.76-.66,1.48-1.35,2.15-2.06.66-.71,1.21-1.37,1.65-1.99.13-.19.31-.29.53-.32.22-.02.41.03.58.16.19.14.29.31.3.52.02.21-.04.41-.18.59-.76,1.04-1.7,2.12-2.83,3.22-1.13,1.1-2.31,2.06-3.56,2.86Z"/>
        <path class="cls-1" d="M201.29,161.48c-.55,0-.83-.25-.83-.76v-7.8h-4.42c-1.23,0-2.2-.13-2.92-.4-.71-.27-1.22-.74-1.53-1.4-.3-.67-.45-1.57-.45-2.71,0-1.21.16-2.15.48-2.8s.84-1.11,1.57-1.36c.72-.25,1.67-.38,2.85-.38h4.42v-4.59c0-.5.28-.76.83-.76.24,0,.43.07.58.2s.23.32.23.56v4.59h4.47c1.19,0,2.15.13,2.87.38.71.25,1.23.71,1.55,1.36.32.66.48,1.59.48,2.8,0,1.14-.17,2.05-.52,2.71-.35.67-.88,1.13-1.59,1.4-.71.27-1.64.4-2.79.4h-4.47v7.8c0,.24-.08.42-.23.56s-.34.2-.58.2ZM196.04,151.36h4.42v-5.93h-4.42c-.81,0-1.45.07-1.93.2-.48.13-.82.42-1.02.84-.2.43-.3,1.07-.3,1.93,0,.79.09,1.4.27,1.83s.5.72.97.88c.47.16,1.14.24,2.02.24ZM202.1,151.36h4.47c1.14,0,1.97-.19,2.49-.58.51-.39.77-1.18.77-2.37,0-.86-.1-1.5-.3-1.93-.2-.43-.54-.71-1.01-.84s-1.12-.2-1.94-.2h-4.47v5.93Z"/>
      </g>
    </g>
  </g>
</svg>