<?xml version="1.0" encoding="UTF-8"?>
<svg id="_レイヤー_2" data-name="レイヤー 2" xmlns="http://www.w3.org/2000/svg" viewBox="0 0 1000 1000">
  <defs>
    <style>
      .cls-1 {
        fill: none;
      }

      .cls-1, .cls-2 {
        stroke-width: 0px;
      }

      .cls-2 {
        fill: #fff;
      }
    </style>
  </defs>
  <g id="Layer_1" data-name="Layer 1">
    <g>
      <path class="cls-2" d="M507.74,1000h-.29c-149.2-1.01-263.9-50.2-340.97-146.25-68.6-85.46-103.97-204.37-105.16-353.39v-.72c1.19-149.06,36.55-267.93,105.16-353.39C243.52,50.2,358.26,1.01,507.42,0h.58c114.38.76,210.06,30.18,284.43,87.37,69.9,53.77,119.09,130.4,146.25,227.82l-84.99,23.7c-45.99-164.97-162.38-249.32-345.97-250.65-121.22.86-212.87,38.97-272.47,113.22-55.82,69.54-84.67,169.98-85.71,298.51,1.08,128.57,29.93,229,85.71,298.51,59.6,74.26,151.25,112.36,272.47,113.22,109.26-.79,181.58-26.25,241.72-85.17,68.64-67.24,67.38-149.71,45.41-199.87-12.93-29.57-36.41-54.2-68.07-72.86-7.96,56.25-25.86,101.92-53.51,136.31-36.88,45.91-89.17,71.02-155.36,74.58-50.09,2.7-98.35-9.15-135.8-33.38-44.3-28.67-70.22-72.53-73-123.52-2.7-49.59,16.96-95.18,55.35-128.39,36.7-31.73,88.3-50.34,149.27-53.77,44.94-2.52,86.97-.54,125.83,5.94-5.15-30.93-15.59-55.46-31.15-73.18-21.39-24.38-54.49-36.84-98.32-37.13h-1.22c-35.18,0-82.97,9.65-113.44,54.96l-73.21-49.23c40.77-60.61,106.99-93.96,186.62-93.96h1.8c133.14.83,212.4,82.25,220.29,224.47,4.53,1.91,8.97,3.89,13.36,5.94,62.12,29.21,107.53,73.43,131.37,127.88,33.2,75.91,36.27,199.62-64.53,298.29-77,75.41-170.49,109.44-303.12,110.34h-.29l.04.04ZM549.52,512.86c-10.08,0-20.31.29-30.76.9-76.53,4.32-124.21,39.36-121.51,89.28,2.85,52.29,60.54,76.6,115.96,73.61,51.03-2.74,117.44-22.58,128.57-154.61-28.16-6.01-59.13-9.18-92.26-9.18Z"/>
      <rect class="cls-1" width="1000" height="1000"/>
    </g>
  </g>
</svg>