<?xml version="1.0" encoding="UTF-8"?>
<svg id="_レイヤー_2" data-name="レイヤー 2" xmlns="http://www.w3.org/2000/svg" viewBox="0 0 833.86 918.79">
  <defs>
    <style>
      .cls-1, .cls-2, .cls-3 {
        stroke-width: 0px;
      }

      .cls-2 {
        fill: red;
      }

      .cls-3 {
        fill: #fff;
      }
    </style>
  </defs>
  <g id="_レイヤー_1-2" data-name="レイヤー 1">
    <g>
      <path class="cls-1" d="M800.32,411.13c-50.84-8.34-100.74-19.79-154.1-10.02,6.67-11.38,12.09-21.55,18.52-31.02,1.95-2.87,6.54-4.49,10.25-5.49,10.28-2.78,20.64-5.43,31.13-7.22,18.93-3.23,37.59-9.01,57.23-6.53,3.21.41,6.68-.3,9.9-1.06,3.59-.84,6.75-2.6,7.53-8.86-37.29,3.19-73.24,9.81-110.17,18.76,2.38-9.21,4.73-16.78,6.23-24.51,1.24-6.39,4.83-9.6,10.71-11.74,28.73-10.44,58.15-17.05,88.86-17.1,12-.02,23.99-.2,35.99-.19,4.34,0,7.7-.92,8.45-7.33-3.11,0-5.59-.18-8.05.03-7.27.63-14.54,2.1-21.8,2.04-34.63-.27-68.45,4.11-101.06,16.29-2.93,1.1-6.09,1.6-9.23,2.4-.56-1.92-.99-2.85-1.08-3.81-2.59-26.22-6.83-52.14-13.1-77.77-3.83-15.64-9.04-30.68-16.85-44.71-3.41-6.12-7.46-12.15-16.43-10.02-1.48.35-3.61-1.14-5.17-2.18-4.59-3.07-5.48-7.85-6.22-13-2.89-20.11-5.4-40.31-9.39-60.21-6.61-32.95-14.2-65.71-21.55-98.5-.58-2.57-2.54-4.83-5.03-9.38-2.76,4.77-4.67,7.31-5.79,10.15-8.1,20.43-16.44,40.78-23.91,61.45-6.6,18.27-15,35.59-24.75,52.31-1.16,1.98-2.56,5.22-4.07,5.35-5.85.51-11.79-.04-17.7-.11-5.67-.07-4.44-5.66-6.93-9.17-2.82.15-5.74.53-8.64.41-5.9-.23-11.8-.66-17.69-1.16-1.28-.11-2.5-.88-3.75-1.35-10.72-4.07-21.45-8.15-33.22-12.63,10.7-2.78,20.57-4.2,30.8-2.42,6.46,1.12,7.51.35,10.16-7.28-3.27,0-6.13-.3-8.9.05-12.55,1.6-25.06,3.49-37.61,5.08-15.5,1.96-30.98,4.38-46.54,5.42-32.81,2.19-63.93,9.17-91.27,28.59-1.81,1.29-3.96,2.1-7.04,3.69-3.17-6.82-6.29-12.99-8.94-19.35-8.21-19.7-16.8-39.2-28.23-57.3-6.18-9.79-13.41-19.06-14.36-29.78-5.41-2.26-9.66-4.03-14.88-6.21-2.8,6.02-3.8,12.56-4.49,18.99-2.5,23.16-4.57,46.37-7,69.55-1.14,10.92-1.85,22-4.36,32.63-2.14,9.08-4.68,17.37,4.62,24.57-7.26,4.22-13.32,8.53-20.23,2.23-7.98,5.52-9.41,7.36-15.71,19.44-8.17,15.65-16.73,31.11-24.43,46.98-3.58,7.39-6.49,15.39-8.03,23.44-3.35,17.55-2.01,35.17,1.87,52.58.76,3.4,1.42,6.82,2.26,10.87-3.36,0-5.33.25-7.23-.04-27.33-4.22-54.42-2.61-81.47,2.7-17.38,3.41-34.47,7.68-50.85,14.44-3.34,1.38-8.02,2.1-7.56,7.99,6.63,1.93,12.2-1.37,17.01-4.15,9.74-5.63,20.19-8.51,30.93-10.93,30.81-6.96,61.82-9.5,93.25-4.7,5.9.9,9.46,3.19,11.46,9.2,2.29,6.89,5.97,13.3,9,19.95,1.04,2.27,1.93,4.62,2.85,6.84-32.93,5.93-65.08,11.46-97.09,17.63-11.39,2.2-22.54,5.8-33.69,9.11-3.23.96-7.14,2.08-7.49,6.98,4.07,2.29,7.21-.03,10.52-1.17,8.44-2.9,16.74-6.5,25.41-8.4,19.52-4.28,39.19-7.87,58.86-11.43,12.45-2.25,25.02-3.86,37.51-5.93,6.93-1.15,12.31.19,15.92,6.97,2.47,4.64,5.92,8.77,9.91,14.55-4.92,2.12-8.53,3.69-12.15,5.24-8.26,3.54-16.71,6.71-24.76,10.68-31.22,15.37-56.54,38.57-81.49,62.2-5.44,5.16-10.34,10.95-18.89,12.29,2.44,5,5.84,5.47,9.38,3.57,3.17-1.7,6.07-4.06,8.73-6.51,9.32-8.57,18.2-17.63,27.77-25.9,21.47-18.55,43.54-36.3,70.4-46.81,8.74-3.42,8.92-4.2,18.36-.4,4.19,1.69,7.81,6,10.51,9.93,5.08,7.4,9.28,15.4,13.9,23.11,5.48,9.15,14.11,14.98,22.59,20.83,3.11,2.14,4.83.16,4.87-3.91-3.39-.75-6.33-2.27-8.94-4.21-.12-.24-.23-.49-.32-.74-.73-1.88-.68-4.02-1.66-5.78-.43-.77-1.04-1.44-1.35-2.26-.15-.38-.23-.78-.3-1.18-.11-.54-.03-1.68-.12-2.68,5.42,9.25,16.9,8.35,25.38,14.32-11.77,11.36-16.17,26.16-22.37,40.01-6.75,15.07-10.53,30.83-11.35,47.32-.96,19.27-2.24,38.53-2.85,57.81-.52,16.62-.5,33.27-.35,49.91.31,33.27.88,66.54,1.33,99.81.04,3.13,0,6.27,0,10.5-.05-.06-.09-.1-.13-.16.17,5.23-2.37,5.84-3.18,15.46-.64,2.03-.18,2.19-.25,3.16.45,1.58.85,3.18,1.13,4.8,1.51,8.8.56,17.42,4.01,25.89,3.36,8.24,5.63,16.83,8.7,25.2.29.78.58,1.56.88,2.33,2.09,1.16,4.06,2.47,6.21,3.65,1.74.96,3.82,1.52,5.34,2.83.37-.01.73-.03,1.1-.06.2-.02.4-.05.6-.07,3.54,3.57,6.94,6.66,9.6,10.28,4.25,5.77,7.19,12.65,15.24,15.15-.24.15-.47.3-.7.44,2.52.99,4.86,2.58,7.29,3.75,1.8.87,3.44,1.91,5.08,2.94.88-.01,1.75-.1,2.58-.3,12.17-2.99,23.87-.12,35.69,1.42,6.44.84,7.15,2.1,7.14,8.49-.01,4.64-.57,9.37.14,13.9,1.37,8.85,11.49,16.97,20.16,15.78,8.15-1.12,16.49-2.6,21.91-10.19,3.85-5.4,8.03-10.56,12.09-15.81,3.17-4.1,6.38-8.17,9.73-12.44,4.37,3.82,7.35,7.67,11.27,9.55,5.3,2.54,11.33,3.56,17.05,5.25,6.68,1.97,13.09,1.73,19.31-1.82,2.56-1.46,5.39-2.95,8.25-3.34,19.44-2.67,38.96-4.8,58.37-7.62,8.15-1.18,16.14-3.52,24.15-5.54,2.12-.53,4.06-1.79,7.01-3.14,2.5,6.03,4.59,11.54,7.05,16.88,6.24,13.54,18.87,21.6,31.52,19.97,10.01-1.29,19.39-3.99,27.34-11,4.56-4.02,6.27-6.38,4.72-8.96.04-4.18-.1-8.36-.47-12.53-.15-1.73-.35-3.49-.88-5.13,1.38-1.51,2.58-3.23,4.21-4.37,7.96-5.53,15.21-12.59,26.58-9.84,2.86.69,6.72-1.76,9.82-3.35,4.04-2.07,7.51-5.52,11.7-6.97,18.02-6.22,35.23-13.83,51.27-24.36,9.79-6.42,19.62-12.54,27.57-21.27,1.56-1.71,3.38-3.25,5.3-4.54,16.82-11.33,26.96-27.96,33.05-46.38,9.09-27.45,16.97-55.38,23.78-83.48,6.61-27.27,17.13-53.21,25.12-79.99,6.37-21.39,9.43-42.84,7.93-65.03-.53-7.9-3.05-15.01-8.05-21.12-8.65-10.57-19.18-11.51-29.43-2.64-2.25,1.94-4.2,4.27-6.08,6.6-10.55,13.03-19.41,27.08-24.95,43.01-6.43,18.47-10.39,37.12-5.61,56.84,1.46,6.02,1.13,12.55,1.11,18.85-.02,6.99-.69,13.97-.97,20.96-.66,16.31-.55,32.8-7.68,48-9.64,20.57-20.78,40.27-35.6,57.67-6.89,8.08-15.64,13.42-25.4,17.15-4.7,1.79-9.65,2.26-15.28-.12-2.02-16.04-4.46-32.13-5.98-48.3-2.03-21.54-3.62-43.13-4.9-64.73-1.94-32.92-3.45-65.86-5.11-98.79-1.28-25.35-3.91-50.47-12.23-74.67-5.25-15.27-12.03-29.59-23.86-41.06-2.15-2.09-5.74-4.18-3.18-8.29,7.09-.08,6.94-.24,9.36-2.66,6.29-6.31,12.73-12.47,19.1-18.69.3.66.61,1.33.91,1.99,2.84-.63,6.26-.46,8.41-2.04,5.61-4.1,11.75-6.25,18.48-6.86,7.96-.73,16.01-2.06,23.9-1.47,21.9,1.64,43.78,3.77,65.58,6.43,12.53,1.53,24.92,4.34,37.32,6.84,4.36.88,9.46,1.17,9.95,7.78.07.95,4.39,2.55,6.42,2.16,3-.57,5.71-3.26,4.41-6.65-1.28-3.31-.62-4.83-4.88-6.54-1.97-.68-1.76-.87-3.74-.87M159.38,336.47c1.69.89,4.4,1.39,4.89,2.72,3.14,8.54,5.79,17.27,8.6,25.93-7.29-8.03-11.91-17.17-13.49-28.65ZM184.49,203.5c-1.97,4.22-3.98,8.43-6.22,12.5-18.68,33.97-19.2,68.41-2.92,103.36,1.94,4.17,3.52,8.51,5.71,13.83-11.9-.7-12.72-1.42-13.39-10.49-.26-3.51-.44-7.04-.7-11.36-7.9,4.47-3.41,12.14-6.08,17.51-5.78,1.68-7.17-2.48-7.89-6.31-1.91-10.1-3.51-20.27-4.88-30.46-.53-3.92.08-7.98-.11-11.96-.57-12.21,1.55-23.95,7.12-34.78,8.8-17.1,18.1-33.94,27.51-51.49,3.43,2.96,3.48,6.19,1.86,9.66ZM229.62,49.46c-3.32,18.93-6.86,37.83-10.93,56.62-3.01-7.94,2.04-53.81,6.79-66.86,4.29,2.4,4.84,6.28,4.14,10.23ZM273.49,118.14c-.58.18-1.17.37-1.75.55-.43-2.14-.86-4.28-1.3-6.43,1.01,1.96,2.03,3.92,3.04,5.88ZM264.17,102.86c-3.63-7.27-6.8-14.78-9.42-22.52,7.47,8.97,11.49,19.6,15.07,30.45-1.95-2.61-4.22-5.06-5.65-7.92ZM280.03,874.83c-3.36-1.94-6.73-3.87-11.76-6.77,6.82-.9,9.47,2.81,13.25,3.93-.49.95-.99,1.89-1.48,2.84ZM302.87,152.84c14.19-15.5,25.12-22.3,41.48-25.69-.26,5.5-3.88,7.64-7.96,10.11-12.74,7.7-25.18,15.89-38.2,24.18-8.55-18.77-8.23-15.93,7.5-26.54,13.62-9.18,28.76-14.67,45-17.35-11.52,4.83-23.05,9.64-34.56,14.5-6.3,2.66-11.42,6.76-14.84,12.76-1.75,3.07-2.67,6.09,1.58,8.03ZM355.92,131.26c3.98-7,6.81-8.37,17.38-8.56-6,2.95-11.4,5.61-17.38,8.56ZM418.19,888.27c-1.55-.13-3.1-.25-4.66-.38,0-.47-.02-.94-.02-1.41,1.55.14,3.11.26,4.66.48.07,0,.02.86.02,1.32ZM439.32,124.66h-8.09c-.02-.61-.04-1.23-.06-1.84,2.74.27,5.48.54,8.22.8l-.06,1.03ZM383.63,114.53c13.44-5.2,50.52-5.33,63.29,0h-63.29ZM630.7,407.58l-1.77-.95c3.73-8.28,7.32-16.62,11.31-24.76.64-1.32,3.06-1.76,6.58-3.64-2.8,13.39-9.74,21.2-16.12,29.35ZM647.42,334.4c-.44-7.61,1.28-10.1,10.21-14.09q.34,10.23-10.21,14.09ZM666.81,286.95l2.6-.12c1,10.59,2.13,21.16,2.92,31.77.26,3.48-.84,6.61-5.52,6.04v-37.68ZM669.05,331.98c.24,9.97-3.63,18.68-8.11,27.21,2.61-9.1-1.15-20.15,8.11-27.21ZM653.5,221.52c9.36,30.42,6.71,61.18,6.02,92.35h-13.22c2.38-30.54,4.77-61.15,7.2-92.35ZM653.5,337.82c.78.64,1.56,1.28,2.34,1.92.33,12.59-12.34,18.6-14.95,29.71-.7-.22-1.39-.44-2.09-.66,1.74-7.71,2.75-15.7,5.53-23.01,1.26-3.33,6-5.34,9.16-7.95ZM641.26,315.35c-.74,11.61-.4,21.28-9.61,28.74-.86-7.03,1.81-14.99,9.61-28.74ZM602.51,422.97c9.75-17.32,18.96-33.66,29.38-52.16-1.09,4.54-1.32,7.02-2.27,9.17-5.33,12.16-10.68,24.3-16.35,36.3-1.64,3.46-3.63,7.37-10.75,6.69Z"/>
      <path class="cls-3" d="M372.79,297.06c-1.13-4.52-2.15-9.12-3.8-13.46-5.78-15.2-14.58-28.33-30.81-33.23-8.68-2.62-18.49-3.37-27.54-2.48-16.81,1.64-32.9,6.37-43.54,21.18-7.43,10.34-12.89,21.6-16.41,33.99-4.7,16.55-2.58,30.33,10.87,42.51,3.87,3.5,7.45,6.79,11.63,8.72,0,0-.01,0-.02,0,.09.17.17.35.27.52.64,1.17,1.38,2.28,2.1,3.4.89,1.39.87,3.02.25,4.42.36.29.73.57,1.09.85-1.7-1.28-3.35-2.71-4.94-4.32-.18-.18-1.11.38-2.35.83,2.12,8.46,8.23,12.16,16.03,14.02,5.17,1.23,10.45,2.11,15.51,3.67,20.09,6.17,37.78,1.08,50.62-15.82,6.01-7.91,10.68-16.85,15.96-25.31,7.73-12.39,8.53-25.68,5.07-39.49ZM283.9,355.92c-.57.07-1.12.12-1.66.14.54-.03,1.09-.07,1.66-.14ZM280.8,366.12c-.34-.2-.68-.41-1.01-.62.34.21.67.42,1.01.62ZM280.66,356.07c.33,0,.68,0,1.02,0-.34,0-.69.01-1.02,0ZM284.99,368.32c-.38-.17-.76-.36-1.13-.54.38.19.75.37,1.13.54ZM283.57,367.64c-.36-.18-.71-.36-1.06-.55.35.19.71.38,1.06.55ZM282.17,366.9c-.34-.19-.69-.38-1.03-.58.34.2.68.39,1.03.58ZM275.46,355.19s.08.03.12.04c-.04-.01-.08-.03-.12-.04ZM279.99,356.04c-.28-.02-.56-.04-.84-.07.28.03.56.05.84.07ZM278.44,355.88c-.24-.04-.48-.08-.71-.12.24.04.47.09.71.12ZM276.98,355.61c-.19-.04-.38-.1-.57-.15.19.05.38.1.57.15ZM278.14,364.39c-.35-.24-.69-.49-1.03-.74.34.25.69.5,1.03.74ZM279.45,365.28c-.34-.22-.68-.44-1.01-.67.34.23.67.45,1.01.67ZM285.15,368.39c2.2,1,4.45,1.81,6.74,2.46-2.29-.65-4.54-1.46-6.74-2.46ZM293.25,371.22c-.39-.1-.78-.2-1.16-.31.39.11.77.21,1.16.31ZM293.6,371.31c.37.09.74.18,1.11.26-.37-.08-.74-.17-1.11-.26ZM295.11,371.66c.36.08.72.16,1.08.23-.36-.07-.72-.15-1.08-.23ZM296.62,371.98c.36.07.71.14,1.07.2-.36-.06-.71-.13-1.07-.2ZM298.15,372.26c.36.06.71.12,1.07.17-.36-.05-.71-.11-1.07-.17ZM299.67,372.5c.36.05.72.1,1.09.15-.36-.05-.72-.1-1.09-.15ZM313.29,373.4c.28,0,.56,0,.83,0-.28,0-.56,0-.83,0ZM301.16,372.7c.38.05.76.09,1.15.14-.38-.04-.77-.09-1.15-.14ZM302.53,372.86c1.36.15,2.73.26,4.11.34-1.38-.08-2.75-.19-4.11-.34ZM306.87,373.21c.35.02.69.04,1.04.05-.35-.02-.69-.03-1.04-.05ZM308.47,373.29c.32.01.64.02.95.03-.32-.01-.64-.02-.95-.03ZM310.06,373.35c.3,0,.61.01.91.02-.3,0-.61-.01-.91-.02ZM311.67,373.38c.29,0,.58,0,.87.01-.29,0-.58,0-.87-.01ZM317.32,373.36c-.26,0-.52,0-.78.01.26,0,.52,0,.78-.01ZM315.72,373.39c-.27,0-.54,0-.81,0,.27,0,.54,0,.81,0ZM318.22,373.34c.23,0,.46-.01.69-.02-.23,0-.46.01-.69.02ZM319.97,373.29c.18,0,.35-.01.53-.02-.18,0-.35.01-.53.02Z"/>
      <path class="cls-1" d="M356.52,312.05c-.64,10.58-14.15,26.05-22.63,25.93-8.47-.13-18.51-15.33-17.95-27.17.51-10.77,9.5-18.57,20.78-18.06,11.11.51,20.39,9.55,19.8,19.3Z"/>
      <path class="cls-3" d="M563.99,287.56c-2.64-17.43-12.55-30.32-28.01-37.67-8.49-4.03-18.58-5.54-28.11-6.31-12.09-.97-23.98,2.56-30.9,13.02-15.16,22.92-21.91,48.23-12.27,74.97,7.23,20.07,22.66,31.54,44.53,33.34,4.25.35,8.5,1.14,12.64,2.15,5.7,1.39,11.07,1.25,16.59-1.07,11.93-5.01,19.64-14.01,23.09-26.01,2.73-9.52,3.63-19.57,4.86-26.6-.96-10.58-1.27-18.26-2.41-25.82Z"/>
      <path class="cls-1" d="M502.37,283.74c7.25-.05,15.9,5.68,17.35,12.73,2.09,10.2-1.6,19.67-7.64,27.41-3.86,4.95-11.11,6.4-15.83.56-4.65-5.74-9.37-12.34-11.17-19.3-3.45-13.32,3.78-21.3,17.3-21.4Z"/>
      <path class="cls-2" d="M833.26,630.18c-2.97-14.65-6.24-29.23-9.52-43.81-.65-2.9-1.63-5.78-2.84-8.49-2.35-5.28-4.37-6.06-9.21-2.76-6.57,4.48-12.75,9.54-19.12,14.31-3.97,2.97-8.12,5.71-11.95,8.84-3.87,3.16-7.83,3.18-12.08,1.19-8.68-4.07-17.91-7.31-25.84-12.52-6.75-4.44-11.34-2.71-17.53.5-4.76,2.47-7.41,5.77-8.17,10.33-.8,4.82-1.81,10.51-.03,14.67,3.54,8.27,2.4,16.2,1.53,24.45-.28,2.63.42,5.36.84,9.77,4.84-2.72,7.98-4.35,10.98-6.21,4.51-2.79,8.57-6.93,13.46-8.41,12.57-3.82,23.53-9.6,31.79-20.03.36-.45,1.78-.06,3.33-.06v6.37c6.36,1.37,11.04,1.9,15.38,3.41,8.91,3.09,16.63,8.14,23.01,15.26,2.41,2.69,5.45,4.91,8.48,6.92,3.27,2.16,7.02.9,7.68-2.87.62-3.51.51-7.35-.2-10.85Z"/>
    </g>
  </g>
</svg>